<svg id="Layer_5" enable-background="new 0 0 64 64" height="512" viewBox="0 0 64 64" width="512" xmlns="http://www.w3.org/2000/svg"><g><g><g><path d="m18 46c2.33 0 4.42-.99 5.88-2.58l2.12-.63v3.21h7.25c-.16.64-.25 1.31-.25 2 0 1.46.39 2.83 1.07 4h-7.12c-1.72-3.55-5.35-6-9.55-6z" fill="#aab2bd"/></g><g><path d="m20 18h38c0-6.63-5.37-12-12-12h-14c-3.32 0-6.32 1.34-8.49 3.51s-3.51 5.17-3.51 8.49zm6.61 4c-1.99-2.48-5.04-4-8.36-4-.76 0-1.51.08-2.25.24v-.24c0-8.84 7.16-16 16-16h14c8.84 0 16 7.16 16 16v34h-14.07c.68-1.17 1.07-2.54 1.07-4 0-.69-.09-1.36-.25-2h7.25v-4h-9.71-10.58-7.12c1.72-.68 2.97-2.2 3.31-4h1.1 12 12v-16h-12-12-6.38z" fill="#aab2bd"/></g><g><path d="m58 18h-38c0-3.32 1.34-6.32 3.51-8.49s5.17-3.51 8.49-3.51h14c6.63 0 12 5.37 12 12z" fill="#e6e9ed"/></g><g><path d="m56 42v4h-7.25c-.41-1.57-1.28-2.96-2.46-4z" fill="#e6e9ed"/></g><g><path d="m28.59 42h7.12c-1.18 1.04-2.05 2.43-2.46 4h-7.25v-3.21l2.15-.64c.15-.04.29-.09.43-.15z" fill="#e6e9ed"/></g><g><path d="m35.71 42h10.58c1.18 1.04 2.05 2.43 2.46 4 .16.64.25 1.31.25 2 0 1.46-.39 2.83-1.07 4-1.38 2.39-3.97 4-6.93 4s-5.55-1.61-6.93-4c-.68-1.17-1.07-2.54-1.07-4 0-.69.09-1.36.25-2 .41-1.57 1.28-2.96 2.46-4z" fill="#ffc729"/></g><g><circle cx="41" cy="48" fill="#fcd770" r="4"/></g><g><path d="m26.62 22h-.01c.8.98 1.43 2.11 1.84 3.35l3.27 9.82c.19.55.28 1.13.28 1.71v.1c0 .35-.03.69-.1 1.02h25.1v-16z" fill="#69d6f4"/></g><g><circle cx="47" cy="12" fill="#fcd770" r="2"/></g><g><circle cx="39" cy="12" fill="#fcd770" r="2"/></g><g><circle cx="31" cy="12" fill="#fcd770" r="2"/></g><g><path d="m31.72 35.17c.19.55.28 1.13.28 1.71v.1c0 .35-.03.69-.1 1.02-.34 1.8-1.59 3.32-3.31 4h-.01c-.14.06-.28.11-.43.15l-2.15.64-2.12.63c1.32-1.42 2.12-3.33 2.12-5.42v-8h-1.6c-4.14 0-8.16-1.41-11.4-4l-.03.12c-.57 2.28-2.62 3.88-4.97 3.88v8c0 2.09.81 4 2.12 5.42l-4.27-1.27c-1.14-.34-2.1-1.04-2.78-1.95s-1.07-2.03-1.07-3.22c0-.65.12-1.29.34-1.9l4.26-11.33c.42-1.13 1.17-2.07 2.11-2.72.95-.66 2.09-1.03 3.29-1.03l.29-.2c1.13-.75 2.39-1.28 3.71-1.56.74-.16 1.49-.24 2.25-.24 3.32 0 6.37 1.52 8.36 4 .8.98 1.43 2.11 1.84 3.35z" fill="#b27946"/></g><g><path d="m27.68 54h-5.77l-2.24-3.21c.05-.11.07-.17.07-.17.17-.41.26-.85.26-1.29 0-1.84-1.49-3.33-3.33-3.33h.73c4.2 0 7.83 2.45 9.55 6 .31.63.55 1.3.73 2z" fill="#fcd770"/></g><g><path d="m14 48.12c0 .56.22 1.1.62 1.5l.38.38-2.86 4h-5.82c.48-1.88 1.46-3.57 2.79-4.89 1.71-1.72 4.01-2.85 6.58-3.07-.41.09-.79.3-1.07.58-.38.38-.62.92-.62 1.5z" fill="#fcd770"/></g><g><path d="m21.91 54h5.77c.21.83.32 1.71.32 2.6 0 1.49-.6 2.84-1.58 3.82s-2.33 1.58-3.82 1.58c-1.09 0-2.13-.33-3-.91-.86-.57-1.56-1.41-1.98-2.41l-.62-1.48c1.12-2.71 2.37-5.69 2.67-6.41z" fill="#f0d0b4"/></g><g><path d="m12.14 54 2.86-4-.38-.38c-.4-.4-.62-.94-.62-1.5 0-.58.24-1.12.62-1.5.28-.28.66-.49 1.07-.58.02 0 .03 0 .04-.01.28-.02.58-.03.87-.03h.07c1.84 0 3.33 1.49 3.33 3.33 0 .44-.09.88-.26 1.29 0 0-.02.06-.07.17-.3.72-1.55 3.7-2.67 6.41-.22.51-.42 1.01-.62 1.48-.84 2.01-2.8 3.32-4.98 3.32-1.49 0-2.84-.6-3.82-1.58s-1.58-2.33-1.58-3.82c0-.89.11-1.77.32-2.6z" fill="#f0d0b4"/></g><g><path d="m13 26c3.24 2.59 7.26 4 11.4 4h1.6v8c0 2.09-.8 4-2.12 5.42-1.46 1.59-3.55 2.58-5.88 2.58h-.6-.73-.07-.48-.12c-2.33 0-4.42-.99-5.88-2.58-1.31-1.42-2.12-3.33-2.12-5.42v-8c2.35 0 4.4-1.6 4.97-3.88z" fill="#f0d0b4"/></g></g><g><path d="m19 42.236.105.211 1.789-.895-.105-.211c-.722-1.444-2.174-2.341-3.789-2.341s-3.067.897-3.789 2.342l-.105.211 1.789.895.105-.212c.381-.762 1.147-1.236 2-1.236s1.619.474 2 1.236z"/><path d="m23.555 35.168-1.752-1.168 1.751-1.168-1.11-1.664-4.247 2.832 4.248 2.832z"/><path d="m11.556 31.168-1.11 1.664 1.751 1.168-1.752 1.168 1.11 1.664 4.248-2.832z"/><path d="m63 18c0-9.374-7.626-17-17-17h-14c-9.19 0-16.681 7.335-16.972 16.455-1.16.331-2.27.837-3.29 1.517l-.052.035c-2.681.126-5.078 1.856-6.026 4.386l-4.252 11.339c-.271.72-.408 1.476-.408 2.247 0 2.807 1.878 5.327 4.567 6.129l4.025 1.202c.672.683 1.455 1.254 2.315 1.696-4.062 1.806-6.907 5.869-6.907 10.594 0 3.529 2.871 6.4 6.4 6.4 2.355 0 4.484-1.274 5.601-3.3 1.118 2.025 3.246 3.3 5.6 3.3 3.529 0 6.4-2.871 6.4-6.4 0-1.257-.207-2.465-.579-3.6h5.101c1.617 2.41 4.365 4 7.478 4s5.862-1.59 7.478-4h14.521zm-56.861 23.191c-1.848-.551-3.139-2.283-3.139-4.212 0-.529.094-1.049.28-1.543l4.252-11.339c.695-1.853 2.49-3.097 4.468-3.097h.303l.544-.363c1.607-1.071 3.476-1.637 5.407-1.637 4.202 0 7.918 2.679 9.247 6.665l3.273 9.819c.15.452.226.919.226 1.392v.103c0 1.93-1.291 3.661-3.14 4.213l-1.659.495c.509-1.127.799-2.373.799-3.687v-9h-2.598c-3.902 0-7.73-1.343-10.778-3.781l-1.214-.971-.411 1.63c-.459 1.838-2.104 3.122-3.999 3.122h-1v9c0 1.314.29 2.56.799 3.687zm49.861-18.191v14h-10v-14zm-12 14h-10v-14h10zm-12-4.163-2.602-7.805c-.238-.716-.548-1.392-.907-2.032h3.509zm.524 12.163h-5.524v-1.465l1.432-.428c.095-.028.182-.075.275-.107h4.825c-.417.624-.758 1.294-1.008 2zm-23.524-7v-7.081c1.947-.32 3.614-1.56 4.484-3.315 3.198 2.198 7.025 3.396 10.918 3.396h.598v7c0 3.859-3.14 7-7 7h-.6-1.279-.121c-3.859 0-7-3.141-7-7zm11.781 12.626c.132-.419.219-.849.219-1.293 0-.634-.137-1.235-.382-1.778 2.58.921 4.652 2.917 5.679 5.445h-3.863zm-7.751-2.938c-.02.142-.03.287-.03.433 0 .717.253 1.42.704 1.974l-2.076 2.905h-3.926c.979-2.413 2.911-4.34 5.328-5.312zm2.43 10.608c-.684 1.642-2.278 2.704-4.06 2.704-2.426 0-4.4-1.974-4.4-4.4 0-.545.049-1.079.137-1.6h3.063l-1.014 1.419 1.628 1.162 5.492-7.689-.978-.978c-.208-.209-.328-.498-.328-.793 0-.534.375-.981.875-1.094.24-.018.481-.027.725-.027h.066c1.287 0 2.334 1.047 2.334 2.333 0 .311-.061.612-.179.897zm7.14 2.704c-1.782 0-3.376-1.063-4.062-2.708l-.455-1.092 1.811-4.347 3.285 4.718 1.642-1.143-.995-1.428h3.038c.088.521.136 1.054.136 1.6 0 2.426-1.974 4.4-4.4 4.4zm4.952-10c-1.221-2.204-3.139-3.966-5.454-4.997.859-.441 1.639-1.012 2.31-1.694l.592-.177v2.868h7.058c-.037.331-.058.664-.058 1 0 1.053.191 2.06.525 3zm13.448 4c-3.86 0-7-3.141-7-7 0-1.887.771-3.685 2.115-5h4.885 4.884c1.344 1.314 2.116 3.112 2.116 5 0 3.859-3.14 7-7 7zm7.468-12h6.532v2h-5.524c-.25-.706-.59-1.376-1.008-2zm12.532 8h-11.525c.334-.94.525-1.947.525-3 0-.336-.021-.669-.058-1h7.058v-6h-25.455c.484-.596.874-1.267 1.121-2h25.334v-18h-30.914c-.672-.767-1.443-1.435-2.284-2h34.198v-1c0-7.168-5.832-13-13-13h-14c-6.842 0-12.452 5.316-12.951 12.032-.263-.018-.528-.032-.795-.032-.405 0-.807.028-1.207.069.485-7.837 6.996-14.069 14.953-14.069h14c8.271 0 15 6.729 15 15zm-39.955-34c.507-5.599 5.226-10 10.955-10h14c5.729 0 10.448 4.401 10.955 10z"/><path d="m31 9c-1.654 0-3 1.346-3 3s1.346 3 3 3 3-1.346 3-3-1.346-3-3-3zm0 4c-.551 0-1-.448-1-1s.449-1 1-1 1 .448 1 1-.449 1-1 1z"/><path d="m39 9c-1.654 0-3 1.346-3 3s1.346 3 3 3 3-1.346 3-3-1.346-3-3-3zm0 4c-.551 0-1-.448-1-1s.449-1 1-1 1 .448 1 1-.449 1-1 1z"/><path d="m47 9c-1.654 0-3 1.346-3 3s1.346 3 3 3 3-1.346 3-3-1.346-3-3-3zm0 4c-.551 0-1-.448-1-1s.449-1 1-1 1 .448 1 1-.449 1-1 1z"/><path d="m36.051 29.316 1.898-.632-.562-1.684h3.226l-2.562 7.684 1.898.632 3.438-10.316h-8.774z"/><path d="m48.051 29.316 1.898-.632-.562-1.684h3.226l-2.562 7.684 1.898.632 3.438-10.316h-8.774z"/><path d="m36 48c0 2.757 2.243 5 5 5s5-2.243 5-5-2.243-5-5-5-5 2.243-5 5zm5-3c1.654 0 3 1.346 3 3s-1.346 3-3 3-3-1.346-3-3 1.346-3 3-3z"/></g></g></svg>