<svg id="Layer_1" enable-background="new 0 0 510 510" height="512" viewBox="0 0 510 510" width="512" xmlns="http://www.w3.org/2000/svg"><g><g><path d="m357.561 21.464-206.158.316c-35.261 15.503-55.049 33.608-55.144 33.661-3.787 17.481-10.374 42.85-10.374 61.465 0 140.833 118.763 254.972 259.596 254.972 60.017 0 115.159-27.944 158.719-62.639.178-1.087 5.8-23.477 5.8-54.239 0-104.349-62.677-194.059-152.439-233.536z" fill="#ffdc64"/><path d="m345.459 364.679c-140.833 0-255-114.167-255-255 0-18.615 2.013-36.757 5.8-54.239-.006.005-.011.01-.017.014-58.645 46.721-96.242 118.738-96.242 199.546 0 48.974 13.806 94.723 37.738 133.569l433.981.884c15.072-24.249 26.209-51.269 32.48-80.214-43.559 34.695-98.724 55.44-158.74 55.44z" fill="#ffc305"/></g><g><path d="m357.554 21.481c-29.354-12.91-61.598-20.463-95.499-21.385l-14.996 14.582-102.523 202.948 102.522 263.747 15 28.531c65.925-1.801 126.04-28.75 170.566-71.958l29.065-33.57c3.651-5.042 7.123-10.226 10.406-15.542z" fill="#a0a0a5"/><path d="m247.058.125c-38.537 1.178-70.904 10.777-95.653 21.659l-113.655 366.777c3.412 5.538 7.03 10.936 10.842 16.182l28.931 33.344c44.134 42.794 103.691 69.771 169.534 71.786l7.5-28.5v-462.292z" fill="#82878c"/><g fill="#fff"><path d="m247.058 175.101h15v30.627h-15z"/><path d="m247.058 297.61h15v30.627h-15z"/><path d="m247.058 236.355h15v30.627h-15z"/><path d="m247.058 420.118h15v30.627h-15z"/><path d="m247.058 358.864h15v30.627h-15z"/><path d="m247.058 113.847h15v30.627h-15z"/><path d="m255 510c2.361 0 4.712-.044 7.058-.108v-28.52h-15v28.492c2.639.082 5.284.136 7.942.136z"/><path d="m247.058.129v21.837h15v-21.865c-.001 0-.003 0-.004 0-2.344-.063-4.695-.101-7.054-.101-1.357 0-2.705.015-4.047.036-1.305.022-2.603.053-3.895.093z"/><path d="m247.058 52.592h15v30.627h-15z"/></g><path d="m61.753 95.07v326.272c5.048 5.86 10.352 11.495 15.907 16.873v-343.145z" fill="#ebebf0"/><path d="m77.66 95.07h-21.267c-2.685 3.33-5.279 6.735-7.797 10.199v299.472c4.571 6.29 9.418 12.365 14.532 18.203v-224.867c0-8.026 6.506-14.532 14.532-14.532z" fill="#d2d2d7"/><path d="m453.601 95.07h-7.408v328.627c5.461-6.182 10.639-12.624 15.492-19.325v-298.729c-2.604-3.597-5.3-7.122-8.084-10.573z" fill="#ebebf0"/><path d="m453.601 95.07h-20.981v342.872c5.049-4.899 9.898-10.007 14.532-15.312v-224.553c0-8.026 6.506-14.532 14.532-14.532v-77.902c-2.603-3.597-5.299-7.122-8.083-10.573z" fill="#d2d2d7"/><g><path d="m469.018 132.088-357.62 6.372 5.007-105.919h352.613z" fill="#ff3c3c"/></g><g><path d="m116.405 44.64v-12.099h-75.423v137.441h428.036v-37.894h-265.165c-48.296 0-87.448-39.152-87.448-87.448z" fill="#dc1428"/></g><g fill="#fff"><path d="m151.042 121.192c0-12.51-32.776-10.339-32.776-34.533 0-15.509 13.544-21.402 26.469-21.402 5.48 0 20.575 1.034 20.575 9.099 0 2.792-1.861 8.479-6.411 8.479-3.722 0-5.687-3.929-14.165-3.929-7.341 0-10.339 2.998-10.339 6.203 0 10.34 32.775 8.375 32.775 34.43 0 14.889-10.856 22.954-25.848 22.954-13.544 0-24.918-6.617-24.918-13.441 0-3.516 3.102-8.685 7.031-8.685 4.859 0 7.961 7.65 17.577 7.65 4.757 0 10.03-1.862 10.03-6.825z"/><path d="m219.9 65.877c3.412 0 4.859 3.723 4.859 7.135 0 3.929-1.757 7.341-4.859 7.341h-14.268v56.143c0 3.309-4.033 4.963-8.065 4.963s-8.064-1.654-8.064-4.963v-56.143h-14.269c-3.102 0-4.859-3.412-4.859-7.341 0-3.412 1.447-7.135 4.859-7.135z"/><path d="m219.486 134.841c0-.311.104-.724.207-1.138l19.231-63.069c1.137-3.619 5.79-5.377 10.546-5.377s9.409 1.758 10.546 5.377l19.334 63.069c.104.414.207.827.207 1.138 0 3.825-5.894 6.617-10.339 6.617-2.585 0-4.653-.827-5.273-2.998l-3.515-12.925h-21.816l-3.516 12.925c-.62 2.171-2.688 2.998-5.273 2.998-4.446 0-10.339-2.792-10.339-6.617zm37.531-21.713-7.547-27.709-7.548 27.709z"/><path d="m285.551 70.737c0-2.585 1.965-4.86 4.963-4.86h21.403c14.165 0 25.435 5.273 25.435 22.127 0 11.58-5.273 18.197-12.51 20.988l12.614 22.851c.414.62.517 1.344.517 1.86 0 4.032-5.376 8.375-10.133 8.375-2.068 0-4.032-.827-5.169-2.998l-14.165-27.503h-6.824v24.918c0 3.309-4.033 4.963-8.065 4.963s-8.065-1.654-8.065-4.963v-65.758zm16.13 9.201v19.232h10.236c5.79 0 9.305-2.378 9.305-9.615s-3.515-9.616-9.305-9.616h-10.236z"/><path d="m389.874 65.877c3.412 0 4.859 3.723 4.859 7.135 0 3.929-1.757 7.341-4.859 7.341h-14.268v56.143c0 3.309-4.033 4.963-8.065 4.963s-8.064-1.654-8.064-4.963v-56.143h-14.269c-3.102 0-4.859-3.412-4.859-7.341 0-3.412 1.447-7.135 4.859-7.135z"/></g></g></g></svg>